<svg width="512" height="512" viewBox="0 0 512 512" fill="none" xmlns="http://www.w3.org/2000/svg">
<path d="M180.523 68.0843C234.759 68.1084 288.084 68.1365 340.497 68.1686C347.538 68.1686 351.047 71.2598 351.023 77.4421C350.902 108.394 350.878 137.294 350.95 164.143C350.974 171.369 347.285 174.958 339.882 174.91C313.732 174.757 282.973 174.721 247.605 174.801C241.463 174.813 237.224 175.548 236.574 181.979C236.277 184.998 236.136 190.309 236.152 197.913C236.208 221.293 236.188 296.573 236.092 423.752C236.08 436.879 227.36 442.865 215.245 442.973C212.812 442.997 201.174 443.005 180.331 442.997C159.496 442.989 147.862 442.969 145.429 442.937C133.313 442.816 124.594 436.819 124.594 423.691C124.626 296.512 124.682 221.233 124.762 197.853C124.786 190.249 124.654 184.938 124.365 181.919C123.715 175.488 119.475 174.753 113.333 174.729C77.9654 174.617 47.2065 174.625 21.0561 174.753C13.6534 174.793 9.96809 171.2 10.0002 163.974C10.1046 137.125 10.1086 108.225 10.0123 77.2735C9.99621 71.0911 13.5089 68 20.5503 68C72.9634 68.0241 126.288 68.0522 180.523 68.0843Z" fill="#0F0E0F"/>
<path d="M501.723 231.598V427.28C501.723 431.442 500.069 435.434 497.126 438.377C494.183 441.32 490.192 442.973 486.03 442.973H282.592C278.43 442.973 274.439 441.32 271.496 438.377C268.553 435.434 266.899 431.442 266.899 427.28V231.598C266.899 227.436 268.553 223.445 271.496 220.502C274.439 217.559 278.43 215.906 282.592 215.906H486.03C490.192 215.906 494.183 217.559 497.126 220.502C500.069 223.445 501.723 227.436 501.723 231.598ZM375.122 235.898C375.122 235.534 374.977 235.184 374.72 234.927C374.462 234.67 374.113 234.525 373.749 234.525H287.397C287.033 234.525 286.684 234.67 286.427 234.927C286.169 235.184 286.024 235.534 286.024 235.898V318.805C286.024 319.169 286.169 319.518 286.427 319.776C286.684 320.033 287.033 320.178 287.397 320.178H373.749C374.113 320.178 374.462 320.033 374.72 319.776C374.977 319.518 375.122 319.169 375.122 318.805V235.898ZM483.031 235.922C483.031 235.551 482.884 235.196 482.622 234.934C482.36 234.672 482.005 234.525 481.634 234.525H395.788C395.418 234.525 395.063 234.672 394.801 234.934C394.539 235.196 394.391 235.551 394.391 235.922V318.805C394.391 319.175 394.539 319.531 394.801 319.793C395.063 320.055 395.418 320.202 395.788 320.202H481.634C482.005 320.202 482.36 320.055 482.622 319.793C482.884 319.531 483.031 319.175 483.031 318.805V235.922ZM375.122 341.254C375.122 341.064 375.084 340.876 375.012 340.701C374.939 340.526 374.833 340.366 374.699 340.232C374.564 340.098 374.405 339.991 374.23 339.919C374.054 339.846 373.866 339.809 373.677 339.809H287.47C287.086 339.809 286.719 339.961 286.448 340.232C286.177 340.503 286.024 340.871 286.024 341.254V423.005C286.024 423.388 286.177 423.756 286.448 424.027C286.719 424.298 287.086 424.45 287.47 424.45H373.677C373.866 424.45 374.054 424.413 374.23 424.34C374.405 424.268 374.564 424.161 374.699 424.027C374.833 423.893 374.939 423.733 375.012 423.558C375.084 423.383 375.122 423.195 375.122 423.005V341.254Z" fill="#0F0E0F"/>
</svg>
